<?xml version="1.0" encoding="UTF-8"?>
<svg version="1.1" xmlns="http://www.w3.org/2000/svg" width="1822" height="2051">
<path d="M0 0 C0.77707306 -0.00696899 1.55414612 -0.01393799 2.35476685 -0.02111816 C4.84464004 -0.03839191 7.33428816 -0.04483626 9.82421875 -0.046875 C10.67420441 -0.04788208 11.52419006 -0.04888916 12.39993286 -0.04992676 C24.99041263 -0.03982573 37.19179748 0.37168859 49.51171875 3.203125 C50.16994629 3.34766113 50.82817383 3.49219727 51.50634766 3.64111328 C74.91932469 8.90160551 94.65905942 20.42411727 115.140625 32.46484375 C121.53638628 36.22433464 127.95808432 39.93769289 134.38671875 43.640625 C135.46622803 44.26275879 136.5457373 44.88489258 137.65795898 45.52587891 C139.84836625 46.78810333 142.03887747 48.05014737 144.22949219 49.31201172 C149.65831817 52.43992648 155.08491156 55.57170948 160.51171875 58.703125 C162.67837458 59.95314379 164.84504125 61.20314378 167.01171875 62.453125 C188.67838542 74.953125 210.34505208 87.453125 232.01171875 99.953125 C233.08437988 100.57195557 234.15704102 101.19078613 235.26220703 101.82836914 C237.42728946 103.07748018 239.59232857 104.32666629 241.75732422 105.57592773 C247.19787581 108.71514809 252.63919091 111.85303063 258.08203125 114.98828125 C268.53378074 121.01059829 278.97471423 127.04981837 289.38671875 133.140625 C298.06434116 138.21587623 306.77777443 143.22571267 315.51171875 148.203125 C325.23287492 153.7431423 334.92066533 159.33687309 344.57861328 164.98657227 C355.102565 171.14079242 365.66552012 177.22682496 376.22949219 183.31201172 C381.65831817 186.43992648 387.08491156 189.57170948 392.51171875 192.703125 C394.67837458 193.95314379 396.84504125 195.20314378 399.01171875 196.453125 C464.01171875 233.953125 529.01171875 271.453125 594.01171875 308.953125 C595.08437988 309.57195557 596.15704102 310.19078613 597.26220703 310.82836914 C599.42728946 312.07748018 601.59232857 313.32666629 603.75732422 314.57592773 C609.19787581 317.71514809 614.63919091 320.85303063 620.08203125 323.98828125 C630.53378074 330.01059829 640.97471423 336.04981837 651.38671875 342.140625 C660.06434116 347.21587623 668.77777443 352.22571267 677.51171875 357.203125 C687.23287492 362.7431423 696.92066533 368.33687309 706.57861328 373.98657227 C717.102565 380.14079242 727.66552012 386.22682496 738.22949219 392.31201172 C743.65831817 395.43992648 749.08491156 398.57170948 754.51171875 401.703125 C756.67837458 402.95314379 758.84504125 404.20314378 761.01171875 405.453125 C774.01171875 412.953125 787.01171875 420.453125 800.01171875 427.953125 C801.62191895 428.88185425 801.62191895 428.88185425 803.26464844 429.8293457 C805.42209217 431.07433673 807.5789973 432.3202616 809.73535156 433.56713867 C815.28898556 436.77680997 820.85223802 439.96765269 826.43359375 443.12890625 C872.38248616 469.21911193 903.24132656 506.11966562 918.10451692 557.24207282 C922.74809338 574.16607579 922.08111761 591.582926 922.02558897 608.96970806 C922.01535522 613.57552428 922.02851591 618.18128751 922.0385623 622.78709602 C922.05295154 630.84341162 922.05260639 638.89961983 922.04237366 646.95594025 C922.02719844 658.93627108 922.03500212 670.91651189 922.04720689 682.89684218 C922.06823833 704.29784592 922.06645686 725.69880181 922.05489124 747.09981006 C922.04481981 765.82844702 922.0422065 784.55706646 922.04698181 803.28570557 C922.04744012 805.15085779 922.04744012 805.15085779 922.04790769 807.05368985 C922.04915309 812.10149133 922.0504267 817.14929281 922.05174675 822.19709427 C922.06084632 857.41333006 922.06246556 892.62956052 922.04749298 927.84579468 C922.04707149 928.84055505 922.04707149 928.84055505 922.04664148 929.85541159 C922.04206213 940.62372737 922.03718407 951.39204301 922.03228078 962.16035864 C922.01285665 1004.86408401 922.01375824 1047.56775922 922.03320312 1090.27148438 C922.03808821 1101.03447464 922.04293255 1111.79746492 922.04749298 1122.56045532 C922.04777477 1123.22324515 922.04805657 1123.88603498 922.0483469 1124.56890935 C922.06346826 1160.38097415 922.06011927 1196.19303608 922.05075407 1232.00510216 C922.04947125 1237.04358291 922.04821988 1242.08206367 922.04698181 1247.12054443 C922.0466655 1248.3611014 922.04634919 1249.60165836 922.0460233 1250.87980796 C922.04147785 1269.59437887 922.04678622 1288.30893032 922.05690002 1307.02349854 C922.06834536 1328.30774422 922.06546002 1349.59193468 922.04377705 1370.8761735 C922.03204862 1382.78087889 922.03124099 1394.68546461 922.04636175 1406.59016684 C922.05535535 1414.55033695 922.04970571 1422.51041145 922.03234267 1430.47056743 C922.02286287 1435.00035808 922.01949971 1439.52991165 922.0339666 1444.05969453 C922.18097775 1493.80640963 907.533511 1536.06561679 873.51171875 1573.203125 C872.62871094 1574.16992188 871.74570313 1575.13671875 870.8359375 1576.1328125 C857.59520038 1589.98164273 841.49737756 1598.92458688 824.93896484 1608.26367188 C819.4424017 1611.37413616 813.97836962 1614.54048685 808.51171875 1617.703125 C806.34783266 1618.95212859 804.1837698 1620.20082598 802.01953125 1621.44921875 C800.94735352 1622.06780762 799.87517578 1622.68639648 798.77050781 1623.32373047 C795.49472309 1625.21292666 792.21815982 1627.10076609 788.94140625 1628.98828125 C778.48965676 1635.01059829 768.04872327 1641.04981837 757.63671875 1647.140625 C748.36672098 1652.56233678 739.05340123 1657.90517415 729.7232666 1663.22235107 C720.59889035 1668.42357629 711.51039101 1673.68340378 702.44482422 1678.98657227 C691.9208725 1685.14079242 681.35791738 1691.22682496 670.79394531 1697.31201172 C665.36511933 1700.43992648 659.93852594 1703.57170948 654.51171875 1706.703125 C652.34506292 1707.95314379 650.17839625 1709.20314378 648.01171875 1710.453125 C646.93921875 1711.071875 645.86671875 1711.690625 644.76171875 1712.328125 C453.01171876 1822.95312499 453.01171876 1822.95312499 449.76123047 1824.82836914 C447.59614804 1826.07748018 445.43110893 1827.32666629 443.26611328 1828.57592773 C437.82556169 1831.71514809 432.38424659 1834.85303063 426.94140625 1837.98828125 C416.48965676 1844.01059829 406.04872327 1850.04981837 395.63671875 1856.140625 C386.36672098 1861.56233678 377.05340123 1866.90517415 367.7232666 1872.22235107 C358.59889035 1877.42357629 349.51039101 1882.68340378 340.44482422 1887.98657227 C329.9208725 1894.14079242 319.35791738 1900.22682496 308.79394531 1906.31201172 C303.36511933 1909.43992648 297.93852594 1912.57170948 292.51171875 1915.703125 C290.34506292 1916.95314379 288.17839625 1918.20314378 286.01171875 1919.453125 C284.93921875 1920.071875 283.86671875 1920.690625 282.76171875 1921.328125 C236.17838542 1948.203125 189.59505208 1975.078125 143.01171875 2001.953125 C141.93841309 2002.5723584 140.86510742 2003.1915918 139.75927734 2003.82958984 C137.60081377 2005.07481984 135.44228552 2006.31993772 133.28369141 2007.56494141 C126.60426308 2011.41764293 119.92739238 2015.27473447 113.25219727 2019.13476562 C109.96236463 2021.0344441 106.66898086 2022.92783841 103.375 2024.8203125 C99.89720283 2026.8195319 96.43384213 2028.83768882 92.9921875 2030.8984375 C74.8031964 2041.68143721 54.44469808 2047.65032264 33.51171875 2050.203125 C32.62097656 2050.31527344 31.73023438 2050.42742188 30.8125 2050.54296875 C-16.40360501 2055.45990979 -54.08850001 2041.53370976 -94.07714844 2018.19091797 C-99.53665594 2015.00946148 -105.01301066 2011.85734797 -110.48828125 2008.703125 C-112.65503469 2007.45327542 -114.82170123 2006.20327517 -116.98828125 2004.953125 C-118.06078125 2004.334375 -119.13328125 2003.715625 -120.23828125 2003.078125 C-175.48828125 1971.203125 -230.73828125 1939.328125 -285.98828125 1907.453125 C-287.06094238 1906.83429443 -288.13360352 1906.21546387 -289.23876953 1905.57788086 C-291.40385196 1904.32876982 -293.56889107 1903.07958371 -295.73388672 1901.83032227 C-301.17443831 1898.69110191 -306.61575341 1895.55321937 -312.05859375 1892.41796875 C-322.51034324 1886.39565171 -332.95127673 1880.35643163 -343.36328125 1874.265625 C-352.04090366 1869.19037377 -360.75433693 1864.18053733 -369.48828125 1859.203125 C-379.20943742 1853.6631077 -388.89722783 1848.06937691 -398.55517578 1842.41967773 C-409.0791275 1836.26545758 -419.64208262 1830.17942504 -430.20605469 1824.09423828 C-435.63488067 1820.96632352 -441.06147406 1817.83454052 -446.48828125 1814.703125 C-448.65493708 1813.45310621 -450.82160375 1812.20310622 -452.98828125 1810.953125 C-517.98828125 1773.453125 -582.98828125 1735.953125 -647.98828125 1698.453125 C-649.06094238 1697.83429443 -650.13360352 1697.21546387 -651.23876953 1696.57788086 C-653.40385196 1695.32876982 -655.56889107 1694.07958371 -657.73388672 1692.83032227 C-663.17443831 1689.69110191 -668.61575341 1686.55321937 -674.05859375 1683.41796875 C-684.51034324 1677.39565171 -694.95127673 1671.35643163 -705.36328125 1665.265625 C-714.04090366 1660.19037377 -722.75433693 1655.18053733 -731.48828125 1650.203125 C-741.20943742 1644.6631077 -750.89722783 1639.06937691 -760.55517578 1633.41967773 C-767.81040089 1629.17695088 -775.08202096 1624.96350556 -782.36328125 1620.765625 C-783.43352539 1620.14800293 -784.50376953 1619.53038086 -785.60644531 1618.89404297 C-790.64253748 1615.9894183 -795.68152658 1613.09011762 -800.73019409 1610.20741272 C-802.47992122 1609.20790057 -804.22863379 1608.20663589 -805.97705078 1607.20483398 C-808.15311065 1605.95865925 -810.33102135 1604.71570785 -812.51123047 1603.47680664 C-853.35628293 1580.05454713 -883.4222608 1542.42329001 -896.06640625 1496.73046875 C-898.4990545 1487.39676825 -900.61066558 1478.28956596 -900.61708242 1468.58592254 C-900.62035461 1467.28524051 -900.6236268 1465.98455848 -900.62699816 1464.64446184 C-900.62558828 1463.21031544 -900.62408628 1461.77616912 -900.62250233 1460.3420229 C-900.62445647 1458.80503109 -900.62684578 1457.26803979 -900.6296303 1455.73104927 C-900.63602562 1451.49602864 -900.63619229 1447.26102699 -900.63535289 1443.02600245 C-900.63552248 1438.42270553 -900.64142968 1433.81941539 -900.64659375 1429.21612185 C-900.65592009 1420.08071349 -900.65984186 1410.94530996 -900.66211272 1401.80989743 C-900.66507472 1390.8693033 -900.67377216 1379.9287156 -900.682527 1368.98812484 C-900.70337312 1342.54214769 -900.71384169 1316.09616941 -900.7226566 1289.65018595 C-900.72686311 1277.1387464 -900.73208512 1264.62730733 -900.73734113 1252.11586818 C-900.75495161 1209.95785801 -900.77000375 1167.79984745 -900.77731137 1125.64183414 C-900.77789533 1122.28164787 -900.7784926 1118.92146161 -900.77908899 1115.56127534 C-900.77920711 1114.89473133 -900.77932523 1114.22818731 -900.77944692 1113.54144499 C-900.78064429 1106.78859123 -900.78185305 1100.03573748 -900.78307946 1093.28288372 C-900.78332469 1091.92893286 -900.78356855 1090.574982 -900.78381103 1089.22103114 C-900.79159762 1045.7544004 -900.81397375 1002.28779668 -900.84648745 958.82117774 C-900.88135599 912.19073999 -900.90196483 865.56031459 -900.90530556 818.9298622 C-900.9057231 813.88387691 -900.90620266 808.83789163 -900.90672874 803.79190636 C-900.90685194 802.54944489 -900.90697513 801.30698342 -900.90710205 800.0268716 C-900.90943314 780.04070936 -900.92508808 760.05457885 -900.94557059 740.06842792 C-900.96583759 719.97352472 -900.97130174 699.87865959 -900.96179996 679.78374807 C-900.95658834 667.85021862 -900.96244651 655.916816 -900.98433463 643.98330483 C-900.99786295 636.00347341 -900.99674774 628.02372907 -900.98393267 620.04389674 C-900.97704961 615.50263639 -900.97631966 610.96161814 -900.99349276 606.42037962 C-901.11773514 571.38877198 -901.11773514 571.38877198 -896.48828125 555.203125 C-896.26984229 554.4272958 -896.05140333 553.65146659 -895.826345 552.85212741 C-888.52609972 527.18661174 -875.08919956 503.2055503 -857.48828125 483.203125 C-856.64910156 482.23117187 -855.80992187 481.25921875 -854.9453125 480.2578125 C-843.44848567 467.15790108 -830.52017515 457.89785567 -815.48828125 449.203125 C-814.52196777 448.64109375 -813.5556543 448.0790625 -812.56005859 447.5 C-806.00854668 443.69182375 -799.44081841 439.91241583 -792.8671875 436.14257812 C-787.40203923 433.0056462 -781.9455091 429.85380851 -776.48828125 426.703125 C-774.32165796 425.45304981 -772.15499124 424.20304989 -769.98828125 422.953125 C-768.91578125 422.334375 -767.84328125 421.715625 -766.73828125 421.078125 C-756.98828125 415.453125 -756.98828125 415.453125 -753.73779297 413.57788086 C-751.57271054 412.32876982 -749.40767143 411.07958371 -747.24267578 409.83032227 C-741.80212419 406.69110191 -736.36080909 403.55321937 -730.91796875 400.41796875 C-720.46621926 394.39565171 -710.02528577 388.35643163 -699.61328125 382.265625 C-690.34328348 376.84391322 -681.02996373 371.50107585 -671.6998291 366.18389893 C-662.57545285 360.98267371 -653.48695351 355.72284622 -644.42138672 350.41967773 C-633.897435 344.26545758 -623.33447988 338.17942504 -612.77050781 332.09423828 C-607.34168183 328.96632352 -601.91508844 325.83454052 -596.48828125 322.703125 C-594.32162542 321.45310621 -592.15495875 320.20310622 -589.98828125 318.953125 C-588.91578125 318.334375 -587.84328125 317.715625 -586.73828125 317.078125 C-394.98828125 206.453125 -394.98828125 206.453125 -391.73779297 204.57788086 C-389.57271054 203.32876982 -387.40767143 202.07958371 -385.24267578 200.83032227 C-379.80212419 197.69110191 -374.36080909 194.55321937 -368.91796875 191.41796875 C-358.46621926 185.39565171 -348.02528577 179.35643163 -337.61328125 173.265625 C-328.34328348 167.84391322 -319.02996373 162.50107585 -309.6998291 157.18389893 C-300.57545285 151.98267371 -291.48695351 146.72284622 -282.42138672 141.41967773 C-271.897435 135.26545758 -261.33447988 129.17942504 -250.77050781 123.09423828 C-245.34168183 119.96632352 -239.91508844 116.83454052 -234.48828125 113.703125 C-232.32162542 112.45310621 -230.15495875 111.20310622 -227.98828125 109.953125 C-226.91578125 109.334375 -225.84328125 108.715625 -224.73828125 108.078125 C-186.82161458 86.203125 -148.90494792 64.328125 -110.98828125 42.453125 C-109.91497559 41.83373047 -108.84166992 41.21433594 -107.73583984 40.57617188 C-105.57793995 39.33159151 -103.41941492 38.08809436 -101.26025391 36.84570312 C-95.70372609 33.64656643 -90.16067291 30.42697827 -84.63671875 27.171875 C-58.03239345 11.54312008 -31.37610947 0.19099454 0 0 Z " fill="#659AD2" transform="translate(900.48828125,-0.203125)"/>
<path d="M0 0 C1.90087891 0.15649414 1.90087891 0.15649414 4 1 C5.36865234 2.93920898 5.36865234 2.93920898 6.5859375 5.49609375 C7.26547485 6.90894653 7.26547485 6.90894653 7.95874023 8.3503418 C8.42610596 9.369104 8.89347168 10.38786621 9.375 11.4375 C9.86105713 12.48139893 10.34711426 13.52529785 10.84790039 14.60083008 C14.9520951 23.58094255 18.30488964 32.51408148 21 42 C21.18979272 42.66184162 21.37958544 43.32368324 21.57512945 44.00558066 C26.20523422 60.95984668 25.569486 78.35251452 25.51387022 95.76658306 C25.50363647 100.37239928 25.51679716 104.97816251 25.52684355 109.58397102 C25.54123279 117.64028662 25.54088764 125.69649483 25.53065491 133.75281525 C25.51547969 145.73314608 25.52328337 157.71338689 25.53548814 169.69371718 C25.55651958 191.09472092 25.55473811 212.49567681 25.54317249 233.89668506 C25.53310106 252.62532202 25.53048775 271.35394146 25.53526306 290.08258057 C25.53572137 291.94773279 25.53572137 291.94773279 25.53618894 293.85056485 C25.53743434 298.89836633 25.53870795 303.94616781 25.540028 308.99396927 C25.54912757 344.21020506 25.55074681 379.42643552 25.53577423 414.64266968 C25.53535274 415.63743005 25.53535274 415.63743005 25.53492273 416.65228659 C25.53034338 427.42060237 25.52546532 438.18891801 25.52056203 448.95723364 C25.5011379 491.66095901 25.50203949 534.36463422 25.52148438 577.06835938 C25.52636946 587.83134964 25.5312138 598.59433992 25.53577423 609.35733032 C25.53605602 610.02012015 25.53633782 610.68290998 25.53662815 611.36578435 C25.55174951 647.17784915 25.54840052 682.98991108 25.53903532 718.80197716 C25.5377525 723.84045791 25.53650113 728.87893867 25.53526306 733.91741943 C25.53494675 735.1579764 25.53463044 736.39853336 25.53430455 737.67668296 C25.5297591 756.39125387 25.53506747 775.10580532 25.54518127 793.82037354 C25.55662661 815.10461922 25.55374127 836.38880968 25.5320583 857.6730485 C25.52032987 869.57775389 25.51952224 881.48233961 25.534643 893.38704184 C25.5436366 901.34721195 25.53798696 909.30728645 25.52062392 917.26744243 C25.51114412 921.79723308 25.50778096 926.32678665 25.52224785 930.85656953 C25.669259 980.60328463 11.02179225 1022.86249179 -23 1060 C-23.88300781 1060.96679688 -24.76601562 1061.93359375 -25.67578125 1062.9296875 C-38.91651837 1076.77851773 -55.01434119 1085.72146188 -71.57275391 1095.06054688 C-77.06931705 1098.17101116 -82.53334913 1101.33736185 -88 1104.5 C-90.16388609 1105.74900359 -92.32794895 1106.99770098 -94.4921875 1108.24609375 C-95.56436523 1108.86468262 -96.63654297 1109.48327148 -97.74121094 1110.12060547 C-101.01699566 1112.00980166 -104.29355893 1113.89764109 -107.5703125 1115.78515625 C-118.02206199 1121.80747329 -128.46299548 1127.84669337 -138.875 1133.9375 C-148.14499777 1139.35921178 -157.45831752 1144.70204915 -166.78845215 1150.01922607 C-175.9128284 1155.22045129 -185.00132774 1160.48027878 -194.06689453 1165.78344727 C-204.59084625 1171.93766742 -215.15380137 1178.02369996 -225.71777344 1184.10888672 C-231.14659942 1187.23680148 -236.57319281 1190.36858448 -242 1193.5 C-244.16665583 1194.75001879 -246.3333225 1196.00001878 -248.5 1197.25 C-249.5725 1197.86875 -250.645 1198.4875 -251.75 1199.125 C-443.49999999 1309.74999999 -443.49999999 1309.74999999 -446.75048828 1311.62524414 C-448.91557071 1312.87435518 -451.08060982 1314.12354129 -453.24560547 1315.37280273 C-458.68615706 1318.51202309 -464.12747216 1321.64990563 -469.5703125 1324.78515625 C-480.02206199 1330.80747329 -490.46299548 1336.84669337 -500.875 1342.9375 C-510.14499777 1348.35921178 -519.45831752 1353.70204915 -528.78845215 1359.01922607 C-537.9128284 1364.22045129 -547.00132774 1369.48027878 -556.06689453 1374.78344727 C-566.59084625 1380.93766742 -577.15380137 1387.02369996 -587.71777344 1393.10888672 C-593.14659942 1396.23680148 -598.57319281 1399.36858448 -604 1402.5 C-606.16665583 1403.75001879 -608.3333225 1405.00001878 -610.5 1406.25 C-611.5725 1406.86875 -612.645 1407.4875 -613.75 1408.125 C-660.33333333 1435 -706.91666667 1461.875 -753.5 1488.75 C-754.57330566 1489.3692334 -755.64661133 1489.9884668 -756.75244141 1490.62646484 C-758.91090498 1491.87169484 -761.06943323 1493.11681272 -763.22802734 1494.36181641 C-769.90745567 1498.21451793 -776.58432637 1502.07160947 -783.25952148 1505.93164062 C-786.54935412 1507.8313191 -789.84273789 1509.72471341 -793.13671875 1511.6171875 C-796.61451592 1513.6164069 -800.07787662 1515.63456382 -803.51953125 1517.6953125 C-821.70852235 1528.47831221 -842.06702067 1534.44719764 -863 1537 C-863.89074219 1537.11214844 -864.78148437 1537.22429687 -865.69921875 1537.33984375 C-912.91532376 1542.25678479 -950.60021876 1528.33058476 -990.58886719 1504.98779297 C-996.04837469 1501.80633648 -1001.52472941 1498.65422297 -1007 1495.5 C-1009.16675344 1494.25015042 -1011.33341998 1493.00015017 -1013.5 1491.75 C-1014.5725 1491.13125 -1015.645 1490.5125 -1016.75 1489.875 C-1072 1458 -1127.25 1426.125 -1182.5 1394.25 C-1183.57266113 1393.63116943 -1184.64532227 1393.01233887 -1185.75048828 1392.37475586 C-1187.91557071 1391.12564482 -1190.08060982 1389.87645871 -1192.24560547 1388.62719727 C-1197.68615706 1385.48797691 -1203.12747216 1382.35009437 -1208.5703125 1379.21484375 C-1219.02206199 1373.19252671 -1229.46299548 1367.15330663 -1239.875 1361.0625 C-1248.55262241 1355.98724877 -1257.26605568 1350.97741233 -1266 1346 C-1275.72115617 1340.4599827 -1285.40894658 1334.86625191 -1295.06689453 1329.21655273 C-1305.59084625 1323.06233258 -1316.15380137 1316.97630004 -1326.71777344 1310.89111328 C-1332.14659942 1307.76319852 -1337.57319281 1304.63141552 -1343 1301.5 C-1345.16665583 1300.24998121 -1347.3333225 1298.99998122 -1349.5 1297.75 C-1414.5 1260.25 -1479.5 1222.75 -1544.5 1185.25 C-1545.57266113 1184.63116943 -1546.64532227 1184.01233887 -1547.75048828 1183.37475586 C-1549.91557071 1182.12564482 -1552.08060982 1180.87645871 -1554.24560547 1179.62719727 C-1559.68615706 1176.48797691 -1565.12747216 1173.35009437 -1570.5703125 1170.21484375 C-1581.02206199 1164.19252671 -1591.46299548 1158.15330663 -1601.875 1152.0625 C-1610.55262241 1146.98724877 -1619.26605568 1141.97741233 -1628 1137 C-1637.72115617 1131.4599827 -1647.40894658 1125.86625191 -1657.06689453 1120.21655273 C-1664.32211964 1115.97382588 -1671.59373971 1111.76038056 -1678.875 1107.5625 C-1679.94524414 1106.94487793 -1681.01548828 1106.32725586 -1682.11816406 1105.69091797 C-1687.15425623 1102.7862933 -1692.19324533 1099.88699262 -1697.24191284 1097.00428772 C-1698.99163997 1096.00477557 -1700.74035254 1095.00351089 -1702.48876953 1094.00170898 C-1704.6648294 1092.75553425 -1706.8427401 1091.51258285 -1709.02294922 1090.27368164 C-1734.35918822 1075.7448237 -1753.35548045 1057.74756869 -1769.75 1033.8125 C-1770.1929541 1033.17658936 -1770.6359082 1032.54067871 -1771.09228516 1031.88549805 C-1772.14487981 1030.30959276 -1773.08340513 1028.65870034 -1774 1027 C-1772.73172274 1023.19516823 -1771.56878831 1022.89015182 -1768.12890625 1020.953125 C-1767.09314453 1020.36337891 -1766.05738281 1019.77363281 -1764.99023438 1019.16601562 C-1763.85908203 1018.53373047 -1762.72792969 1017.90144531 -1761.5625 1017.25 C-1760.38161359 1016.58104434 -1759.20128302 1015.9111066 -1758.02148438 1015.24023438 C-1755.56741044 1013.84578107 -1753.11098596 1012.45560687 -1750.65283203 1011.06835938 C-1745.07920501 1007.91832838 -1739.54142826 1004.70621187 -1734 1001.5 C-1731.83350437 1000.24970358 -1729.66683705 998.99970462 -1727.5 997.75 C-1725.89125 996.821875 -1725.89125 996.821875 -1724.25 995.875 C-1662.49999999 960.24999999 -1662.49999999 960.24999999 -1659.24951172 958.37475586 C-1657.08442929 957.12564482 -1654.91939018 955.87645871 -1652.75439453 954.62719727 C-1647.31384294 951.48797691 -1641.87252784 948.35009437 -1636.4296875 945.21484375 C-1625.97793801 939.19252671 -1615.53700452 933.15330663 -1605.125 927.0625 C-1595.85500223 921.64078822 -1586.54168248 916.29795085 -1577.21154785 910.98077393 C-1568.0871716 905.77954871 -1558.99867226 900.51972122 -1549.93310547 895.21655273 C-1539.40915375 889.06233258 -1528.84619863 882.97630004 -1518.28222656 876.89111328 C-1512.85340058 873.76319852 -1507.42680719 870.63141552 -1502 867.5 C-1499.83334417 866.24998121 -1497.6666775 864.99998122 -1495.5 863.75 C-1493.89125 862.821875 -1493.89125 862.821875 -1492.25 861.875 C-1482.5 856.25 -1482.5 856.25 -1479.24951172 854.37475586 C-1477.08442929 853.12564482 -1474.91939018 851.87645871 -1472.75439453 850.62719727 C-1467.31384294 847.48797691 -1461.87252784 844.35009437 -1456.4296875 841.21484375 C-1454.24478807 839.95573541 -1452.05989221 838.69662086 -1449.875 837.4375 C-1448.81474609 836.82704834 -1447.75449219 836.21659668 -1446.66210938 835.58764648 C-1441.12784828 832.39717366 -1435.60590431 829.18712418 -1430.1015625 825.9453125 C-1428.99312988 825.29377197 -1427.88469727 824.64223145 -1426.74267578 823.97094727 C-1424.62162506 822.7226222 -1422.50271524 821.47065051 -1420.38623047 820.21459961 C-1419.44408691 819.6603833 -1418.50194336 819.10616699 -1417.53125 818.53515625 C-1416.70173828 818.044104 -1415.87222656 817.55305176 -1415.01757812 817.04711914 C-1413 816 -1413 816 -1411 816 C-1410.5457666 816.82282471 -1410.0915332 817.64564941 -1409.62353516 818.4934082 C-1404.30339918 828.02377855 -1398.4592194 837.13017448 -1392.375 846.1875 C-1391.89233673 846.90855927 -1391.40967346 847.62961853 -1390.91238403 848.37252808 C-1379.39310034 865.56954494 -1367.25506345 882.09732368 -1354 898 C-1353.51934082 898.57975586 -1353.03868164 899.15951172 -1352.54345703 899.75683594 C-1346.41730665 907.13697568 -1340.08038107 914.27903247 -1333.55151367 921.30493164 C-1332.37916404 922.58575359 -1331.22013675 923.87878715 -1330.06762695 925.17749023 C-1324.55224002 931.38685398 -1318.81672954 937.33870385 -1312.93383789 943.1965332 C-1311.43193075 944.69304925 -1309.93548938 946.194883 -1308.43945312 947.69726562 C-1303.66531032 952.47470356 -1298.84173787 957.1416862 -1293.7097168 961.53540039 C-1291.31314959 963.58837864 -1289.00526408 965.7338618 -1286.6875 967.875 C-1281.28519817 972.79495345 -1275.71222823 977.44545002 -1270 982 C-1269.47567383 982.41862305 -1268.95134766 982.83724609 -1268.41113281 983.26855469 C-1210.14286584 1029.69731555 -1145.45808432 1064.80818972 -1075 1089 C-1074.17757812 1089.28681641 -1073.35515625 1089.57363281 -1072.5078125 1089.86914062 C-1055.3827109 1095.80283811 -1037.61380106 1099.80523575 -1020 1104 C-1018.74413086 1104.29970703 -1017.48826172 1104.59941406 -1016.19433594 1104.90820312 C-1002.51371731 1108.12404179 -988.77371594 1110.64920813 -974.875 1112.6875 C-973.59874756 1112.87795898 -972.32249512 1113.06841797 -971.00756836 1113.26464844 C-966.34798445 1113.93024649 -961.6777529 1114.47886713 -957 1115 C-955.85563477 1115.12808044 -954.71126953 1115.25616089 -953.53222656 1115.38812256 C-930.91736566 1117.83645405 -908.51877093 1118.41799729 -885.78442383 1118.26428223 C-882.3425089 1118.24488602 -878.90064537 1118.24110197 -875.45868301 1118.2375679 C-871.3109728 1118.23242664 -867.16330977 1118.21795934 -863.015625 1118.203125 C-862.24158577 1118.20124428 -861.46754654 1118.19936356 -860.67005157 1118.19742584 C-858.48602324 1118.19053358 -856.30214415 1118.17690405 -854.11816406 1118.16113281 C-852.88390686 1118.15430481 -851.64964966 1118.14747681 -850.37799072 1118.14044189 C-847.16483466 1118.00685309 -844.15762051 1117.58732882 -841 1117 C-839.51103158 1116.87753978 -838.01971975 1116.78048832 -836.52734375 1116.7109375 C-789.68380723 1114.01298425 -743.47863013 1103.54528096 -699 1089 C-698.29234497 1088.76992249 -697.58468994 1088.53984497 -696.85559082 1088.30279541 C-677.83383194 1082.11506676 -659.25656402 1075.21358709 -641 1067 C-639.80665039 1066.46503906 -638.61330078 1065.93007812 -637.38378906 1065.37890625 C-588.66490058 1043.4568423 -542.90270265 1015.52984941 -501.73242188 981.42822266 C-499.25689123 979.3873751 -496.75001785 977.38572864 -494.25 975.375 C-489.33298205 971.3526575 -484.6661421 967.10160928 -480.01953125 962.7734375 C-477.811242 960.72237565 -475.55172659 958.74287839 -473.26855469 956.77563477 C-469.25308429 953.26695519 -465.44694955 949.59215215 -461.68359375 945.81640625 C-461.02343765 945.15720688 -460.36328156 944.49800751 -459.68312073 943.8188324 C-458.29964494 942.43603165 -456.91740917 941.05198924 -455.53637695 939.66674805 C-453.44268331 937.56769657 -451.34370126 935.4740406 -449.24414062 933.38085938 C-447.89030429 932.02636214 -446.53677825 930.67155469 -445.18359375 929.31640625 C-444.56673203 928.70156876 -443.9498703 928.08673126 -443.3143158 927.45326233 C-439.01370454 923.12984041 -434.97231252 918.62547029 -431 914 C-430.04990109 912.90588347 -429.0994555 911.81206774 -428.1484375 910.71875 C-411.35995132 891.27992307 -395.96098764 871.1046015 -381.6875 849.75 C-381.06305496 848.81809845 -381.06305496 848.81809845 -380.42599487 847.86737061 C-369.9385677 832.38636849 -369.9385677 832.38636849 -361 816 C-361.65145996 815.62415771 -362.30291992 815.24831543 -362.97412109 814.86108398 C-364.35978271 814.06166382 -364.35978271 814.06166382 -365.7734375 813.24609375 C-366.81258301 812.64659912 -367.85172852 812.04710449 -368.92236328 811.42944336 C-371.25671642 810.08267577 -373.59103235 808.73584393 -375.92529297 807.38891602 C-381.83978489 803.97622702 -387.75488441 800.56460594 -393.671875 797.15625 C-405.12081503 790.55959493 -416.55335474 783.93637825 -427.96142578 777.26928711 C-435.29312479 772.98755083 -442.64282981 768.73779993 -450 764.5 C-458.34798459 759.69148156 -466.68243184 754.86094317 -475 750 C-486.54722486 743.25286886 -498.12902119 736.5666063 -509.71777344 729.89111328 C-516.22871257 726.13971976 -522.73663194 722.38309006 -529.24511719 718.62744141 C-534.68585336 715.48817754 -540.12731477 712.35018503 -545.5703125 709.21484375 C-556.0623232 703.16944711 -566.54463439 697.1085883 -577 691 C-585.65842329 685.94407604 -594.32303173 680.89902339 -603 675.875 C-604.08023437 675.24722656 -605.16046875 674.61945312 -606.2734375 673.97265625 C-611.77139165 670.7943679 -617.28150669 667.76302201 -623 665 C-623.60585937 665.99257812 -624.21171875 666.98515625 -624.8359375 668.0078125 C-633.06010869 681.38431671 -641.85631083 693.99691118 -652 706 C-652.88969889 707.0765123 -653.77900413 708.15335002 -654.66796875 709.23046875 C-664.84306834 721.44862077 -675.85721948 733.11882593 -688.390625 742.9453125 C-691.16949052 745.1334611 -693.82463588 747.4367708 -696.5 749.75 C-708.97054782 760.15021044 -722.84997497 769.05914072 -737 777 C-737.75410156 777.42490723 -738.50820312 777.84981445 -739.28515625 778.28759766 C-768.95896995 794.83324939 -801.57302978 806.08892945 -835 812 C-836.23621094 812.22171875 -837.47242188 812.4434375 -838.74609375 812.671875 C-853.5620301 815.11345253 -868.36852443 816.41687741 -883.375 816.375 C-884.15803497 816.37412384 -884.94106995 816.37324768 -885.74783325 816.37234497 C-967.74493784 816.07499679 -1041.92013607 783.04249189 -1101 727 C-1101.825 726.21753906 -1102.65 725.43507813 -1103.5 724.62890625 C-1108.27083491 719.98231183 -1112.53793113 715.06360431 -1116.6953125 709.86328125 C-1119.01325149 706.98353671 -1121.40808556 704.18271079 -1123.8125 701.375 C-1167.44543991 648.80033281 -1190.2865363 579.34190984 -1190.1875 511.375 C-1190.18709213 510.31602509 -1190.18709213 510.31602509 -1190.18667603 509.23565674 C-1190.1688288 499.1347008 -1189.81694026 489.21500242 -1188.32080078 479.21386719 C-1187.956695 476.70114936 -1187.64673296 474.1843957 -1187.33984375 471.6640625 C-1183.76878836 442.89084554 -1175.77066773 415.50967584 -1164 389 C-1163.61086426 388.12005371 -1163.22172852 387.24010742 -1162.82080078 386.33349609 C-1149.74377396 357.08831404 -1131.69357128 330.19700912 -1109.7109375 306.8984375 C-1107.52618511 304.56257832 -1105.43370502 302.19531629 -1103.375 299.75 C-1100.07867742 295.94410098 -1096.41370863 292.64628459 -1092.6328125 289.328125 C-1090.93444904 287.82630805 -1089.2601851 286.29656944 -1087.6171875 284.734375 C-1060.40048753 258.96809477 -1026.58161609 240.72266957 -992 227 C-991.28908203 226.71543945 -990.57816406 226.43087891 -989.84570312 226.13769531 C-973.00906337 219.48030467 -954.82025139 215.10022605 -937 212 C-936.16404297 211.84901855 -935.32808594 211.69803711 -934.46679688 211.54248047 C-918.05870384 208.72784275 -901.59809859 208.70945202 -885 208.6875 C-883.90139648 208.68391479 -882.80279297 208.68032959 -881.67089844 208.67663574 C-864.09621478 208.64582367 -847.14172861 209.54570059 -829.9375 213.375 C-828.91495117 213.59776611 -827.89240234 213.82053223 -826.83886719 214.05004883 C-824.80755136 214.49469831 -822.7770706 214.94318469 -820.74755859 215.39599609 C-818.39458075 215.91325815 -816.03933723 216.39755316 -813.67578125 216.86328125 C-792.68062644 221.16009645 -772.18950197 229.58927917 -753 239 C-752.15421387 239.41330566 -751.30842773 239.82661133 -750.43701172 240.25244141 C-732.52003053 249.10275777 -715.70781931 259.63780384 -700 272 C-698.75089844 272.96099609 -698.75089844 272.96099609 -697.4765625 273.94140625 C-691.70475057 278.44778938 -686.29355976 283.29990062 -680.9375 288.28515625 C-678.3288795 290.69604886 -675.67503166 293.03863421 -673 295.375 C-662.98946039 304.39249408 -654.40533003 314.63973288 -646.26416016 325.34179688 C-645.0862367 326.88688304 -643.89329638 328.42048886 -642.69921875 329.953125 C-636.69015782 337.76597154 -631.36812614 345.96895534 -626.09399414 354.28930664 C-625.08186659 355.87198412 -624.04207931 357.43688104 -623 359 C-619.45565573 357.65544302 -616.19200807 356.08771656 -612.88671875 354.234375 C-611.89873291 353.68144775 -610.91074707 353.12852051 -609.89282227 352.55883789 C-608.83506592 351.96192139 -607.77730957 351.36500488 -606.6875 350.75 C-605.57882568 350.12665771 -604.47015137 349.50331543 -603.32788086 348.86108398 C-593.86311797 343.5226921 -584.47190982 338.06189535 -575.09765625 332.56640625 C-568.74953385 328.84665088 -562.37637887 325.17104751 -556 321.5 C-547.65190241 316.69167922 -539.31756684 311.8609424 -531 307 C-519.45277514 300.25286886 -507.87097881 293.5666063 -496.28222656 286.89111328 C-490.85340058 283.76319852 -485.42680719 280.63141552 -480 277.5 C-477.83334417 276.24998121 -475.6666775 274.99998122 -473.5 273.75 C-472.4275 273.13125 -471.355 272.5125 -470.25 271.875 C-460.50000001 266.25 -460.50000001 266.25 -457.24951172 264.37475586 C-455.08442929 263.12564482 -452.91939018 261.87645871 -450.75439453 260.62719727 C-445.31384294 257.48797691 -439.87252784 254.35009437 -434.4296875 251.21484375 C-423.93767828 245.16944796 -413.45524681 239.10878989 -403 233 C-385.09088937 222.53805283 -367.11300851 212.19734273 -349.0958252 201.9229126 C-340.05706757 196.76683517 -331.05740558 191.54689688 -322.07763672 186.28881836 C-314.41397544 181.80810487 -306.71298363 177.39496772 -299 173 C-289.27875494 167.46014067 -279.59105132 161.86625068 -269.93310547 156.21655273 C-259.40915375 150.06233258 -248.84619863 143.97630004 -238.28222656 137.89111328 C-232.85340058 134.76319852 -227.42680719 131.63141552 -222 128.5 C-219.83334417 127.24998121 -217.6666775 125.99998122 -215.5 124.75 C-214.4275 124.13125 -213.355 123.5125 -212.25 122.875 C-46.5 27.25 -46.5 27.25 -43.24389648 25.37158203 C-41.09745541 24.13318229 -38.95113196 22.89457865 -36.80493164 21.65576172 C-31.69997994 18.70944644 -26.59379033 15.76533542 -21.48348999 12.82830811 C-19.05339448 11.43150193 -16.62396065 10.03354722 -14.19458008 8.63549805 C-12.46695585 7.64194008 -10.7383688 6.65005691 -9.00976562 5.65820312 C-7.97400391 5.06201172 -6.93824219 4.46582031 -5.87109375 3.8515625 C-4.49328735 3.05999756 -4.49328735 3.05999756 -3.08764648 2.25244141 C-1.08479141 1.1656533 -1.08479141 1.1656533 0 0 Z " fill="#00599C" transform="translate(1797,513)"/>
<path d="M0 0 C2.27313242 0.25662316 4.54656806 0.51057603 6.8203125 0.76171875 C16.38072137 1.85720451 25.73661654 3.2945293 35.16821289 5.22802734 C38.7539359 5.95042659 42.34401263 6.61436815 45.9453125 7.25390625 C134.1313438 23.14444155 217.85821963 60.6626683 315 132 C316.7490739 133.41780991 318.49910618 134.83443818 320.25 136.25 C337.19178169 150.14418073 353.10589223 165.0409164 368.625 180.5 C369.45410889 181.32443604 370.28321777 182.14887207 371.13745117 182.99829102 C375.40825167 187.28037959 379.5237365 191.63677907 383.46728516 196.22216797 C385.54865022 198.6363923 387.7121778 200.97126318 389.875 203.3125 C394.79577302 208.7149752 399.4270049 214.30237581 404 220 C404.92389449 221.13198786 405.8484029 222.26347487 406.7734375 223.39453125 C414.57920607 232.98477191 421.87355065 242.89705075 429 253 C429.46760742 253.66080566 429.93521484 254.32161133 430.41699219 255.00244141 C438.13306007 265.94325904 445.3342974 277.20601688 452.45214844 288.54296875 C453.4677506 290.15511704 454.49159244 291.76211 455.52441406 293.36328125 C455.98299805 294.07871094 456.44158203 294.79414062 456.9140625 295.53125 C457.31834473 296.15580078 457.72262695 296.78035156 458.13916016 297.42382812 C459 299 459 299 459 301 C426.39843751 319.80859374 426.39843751 319.80859374 423.19238281 321.65820312 C421.04845933 322.89510728 418.90457974 324.13208754 416.76074219 325.36914062 C411.31807441 328.50958117 405.87464455 331.64868634 400.4296875 334.78515625 C389.93767906 340.83055159 379.45518324 346.89110219 369 353 C357.45270484 359.74701194 345.87097973 366.43339318 334.28222656 373.10888672 C328.85340058 376.23680148 323.42680719 379.36858448 318 382.5 C315.83334417 383.75001879 313.6666775 385.00001878 311.5 386.25 C310.4275 386.86875 309.355 387.4875 308.25 388.125 C298.5 393.75 298.5 393.75 295.24951172 395.62524414 C293.08442929 396.87435518 290.91939018 398.12354129 288.75439453 399.37280273 C283.31384294 402.51202309 277.87252784 405.64990563 272.4296875 408.78515625 C260.96086671 415.39338156 249.50786571 422.02717775 238.08032227 428.70654297 C229.22755283 433.8770831 220.3485288 439.00145894 211.46289062 444.11523438 C210.42970703 444.71013672 209.39652344 445.30503906 208.33203125 445.91796875 C207.42171143 446.44156982 206.5113916 446.9651709 205.57348633 447.50463867 C203.79244172 448.53954032 202.03321671 449.61257803 200.29321289 450.71508789 C198 452 198 452 195.9765625 451.640625 C193.01207319 449.1799817 191.29556148 446.03272687 189.375 442.75 C181.59975165 429.92120119 172.8578612 418.29451074 163 407 C162.38511719 406.28457031 161.77023437 405.56914063 161.13671875 404.83203125 C159.44261808 402.8710794 157.72634268 400.9326352 156 399 C155.16855469 398.06414062 154.33710937 397.12828125 153.48046875 396.1640625 C147.66281128 389.67473943 141.62008575 383.68560113 135 378 C134.06027344 377.17242188 133.12054687 376.34484375 132.15234375 375.4921875 C101.14518115 348.42220415 65.01488488 328.84672635 26 316 C25.30712891 315.76990234 24.61425781 315.53980469 23.90039062 315.30273438 C20.28964457 314.11463251 16.65885835 313.02935882 13 312 C11.88882813 311.67644531 10.77765625 311.35289062 9.6328125 311.01953125 C2.37320877 308.98215859 -4.91527928 307.32287396 -12.3125 305.875 C-13.10462891 305.71644531 -13.89675781 305.55789063 -14.71289062 305.39453125 C-31.77729438 302.17381111 -48.67726911 301.62674131 -66 301.6875 C-67.13095093 301.68998749 -68.26190186 301.69247498 -69.42712402 301.69503784 C-85.7848783 301.75073256 -101.88119802 301.9306039 -118 305 C-119.19286621 305.22574707 -120.38573242 305.45149414 -121.61474609 305.68408203 C-178.60100955 316.84812076 -235.70754674 343.07047576 -276.4296875 385.4296875 C-278.20602767 387.20602767 -280.08414589 388.81303054 -282 390.4375 C-286.09145384 393.98238558 -289.51169147 397.87194377 -293 402 C-293.87398437 402.98613281 -294.74796875 403.97226562 -295.6484375 404.98828125 C-337.15303951 451.97724617 -363.01729214 512.67233644 -369 575 C-369.0928125 575.9187793 -369.185625 576.83755859 -369.28125 577.78417969 C-371.44193631 600.91123997 -370.14582796 624.04058897 -367 647 C-366.8772168 647.91620117 -366.75443359 648.83240234 -366.62792969 649.77636719 C-365.88436562 655.2107349 -365.01156275 660.60920299 -364 666 C-363.76023437 667.28132813 -363.52046875 668.56265625 -363.2734375 669.8828125 C-350.6042345 731.67907788 -314.36293546 792.43265507 -266 833 C-265.45875488 833.45503906 -264.91750977 833.91007812 -264.35986328 834.37890625 C-225.15985421 867.19068799 -179.88028699 889.62192514 -130 901 C-128.80105103 901.27432861 -128.80105103 901.27432861 -127.57788086 901.55419922 C-91.11706223 909.36695956 -52.61500974 909.31412528 -16 903 C-14.84838379 902.80696289 -13.69676758 902.61392578 -12.51025391 902.41503906 C53.78063602 890.91492456 121.51249068 853.9049465 163.74609375 800.80078125 C165.1991604 798.99515077 166.6893982 797.21852049 168.22265625 795.48046875 C176.62368269 785.9013351 183.37491054 775.19847243 190.33105469 764.55175781 C192.2032668 761.68921232 194.09595025 758.84142809 196 756 C203.90534706 759.84381301 211.56513645 763.95528582 219.125 768.4375 C221.23140401 769.67640513 223.33818826 770.91466398 225.4453125 772.15234375 C227.06228027 773.10343018 227.06228027 773.10343018 228.71191406 774.07373047 C234.1246434 777.2446864 239.56267061 780.37147817 245 783.5 C253.34823426 788.30808172 261.68243476 793.13905853 270 798 C282.63743454 805.38414893 295.31675298 812.69490135 308 820 C321.67554314 827.87662589 335.33960958 835.77120092 348.96582031 843.73291016 C360.61659185 850.53587623 372.30903744 857.26642186 384 864 C412.01922479 880.13807576 412.01922479 880.13807576 425.04931641 887.77685547 C430.29149132 890.84870876 435.5499907 893.88679577 440.8359375 896.8828125 C441.95081543 897.51952881 443.06569336 898.15624512 444.21435547 898.81225586 C446.3670774 900.04089735 448.52481162 901.26080746 450.68798828 902.47094727 C451.64688965 903.02065186 452.60579102 903.57035645 453.59375 904.13671875 C454.87282227 904.85927856 454.87282227 904.85927856 456.17773438 905.59643555 C456.77908203 906.05961182 457.38042969 906.52278809 458 907 C458 917.03158048 445.93972301 930.41070575 440.375 938.6875 C439.72203445 939.66254486 439.72203445 939.66254486 439.05587769 940.6572876 C428.24285051 956.79182533 416.82003872 972.30716141 404.42822266 987.26757812 C402.3873751 989.74310877 400.38572864 992.24998215 398.375 994.75 C394.3526575 999.66701795 390.10160928 1004.3338579 385.7734375 1008.98046875 C383.7266549 1011.18405132 381.75183689 1013.43894222 379.78930664 1015.71777344 C376.20857845 1019.81563157 372.45067144 1023.69435173 368.59765625 1027.53515625 C367.91626083 1028.21750839 367.23486542 1028.89986053 366.53282166 1029.60289001 C365.10294259 1031.03344437 363.67182089 1032.46275767 362.23950195 1033.89086914 C360.06802289 1036.05699074 357.90193675 1038.22840174 355.73632812 1040.40039062 C354.33625798 1041.79979987 352.93587762 1043.19889884 351.53515625 1044.59765625 C350.89844498 1045.23639175 350.2617337 1045.87512726 349.60572815 1046.53321838 C345.23083075 1050.88578196 340.67712079 1054.97593334 336 1059 C334.80870103 1060.04551516 333.61841803 1061.0921905 332.4296875 1062.140625 C324.78483753 1068.84304674 317.02329708 1075.32990608 308.94775391 1081.50732422 C307.60268467 1082.5381281 306.26143946 1083.5739343 304.92333984 1084.61376953 C283.43774216 1101.29608508 260.61397366 1116.49674015 237 1130 C236.25959473 1130.42394043 235.51918945 1130.84788086 234.75634766 1131.28466797 C229.53947582 1134.25581371 224.27890273 1137.14087313 219 1140 C218.22172852 1140.42603516 217.44345703 1140.85207031 216.64160156 1141.29101562 C179.91841908 1161.33804205 140.86777297 1175.64162787 101 1188 C99.78650879 1188.37672852 98.57301758 1188.75345703 97.32275391 1189.14160156 C59.84261958 1200.605316 19.49247519 1207.74050477 -19.64282227 1209.7980957 C-22.06880105 1209.96700901 -22.06880105 1209.96700901 -24.70243835 1210.50254822 C-28.22073098 1211.03329825 -31.56040433 1211.14145102 -35.11816406 1211.16113281 C-35.80569763 1211.16609772 -36.4932312 1211.17106262 -37.20159912 1211.17617798 C-39.47295163 1211.19074603 -41.74423342 1211.19760609 -44.015625 1211.203125 C-44.8061602 1211.20595238 -45.5966954 1211.20877975 -46.41118622 1211.21169281 C-50.6260155 1211.22669202 -54.84081074 1211.23590674 -59.05566406 1211.24023438 C-62.46853729 1211.24455204 -65.8811481 1211.25817486 -69.29394531 1211.28125 C-92.37112408 1211.43405376 -115.05899435 1210.56761924 -138 1208 C-138.96164062 1207.89286682 -139.92328125 1207.78573364 -140.9140625 1207.675354 C-145.91640407 1207.102288 -150.89508657 1206.43024009 -155.875 1205.6875 C-156.93542511 1205.53267654 -156.93542511 1205.53267654 -158.01727295 1205.37472534 C-172.49451414 1203.25176169 -186.75170907 1200.32644924 -201 1197 C-203.14841981 1196.51033905 -205.29685713 1196.02075491 -207.4453125 1195.53125 C-254.35800348 1184.69773676 -299.07354479 1167.6533998 -342 1146 C-343.45067871 1145.27151855 -343.45067871 1145.27151855 -344.93066406 1144.52832031 C-364.658084 1134.57053752 -383.6340461 1123.28155513 -402 1111 C-402.97646484 1110.34765381 -402.97646484 1110.34765381 -403.97265625 1109.68212891 C-420.94965455 1098.28678288 -437.29480687 1086.09045894 -453 1073 C-453.57975586 1072.51934082 -454.15951172 1072.03868164 -454.75683594 1071.54345703 C-462.13766997 1065.41673033 -469.28064997 1059.07940869 -476.30688477 1052.54956055 C-477.58098656 1051.38348641 -478.86749822 1050.23094964 -480.15991211 1049.08520508 C-486.53116954 1043.43000538 -492.61468163 1037.54021255 -498.6237793 1031.5065918 C-500.1927236 1029.93225845 -501.76698558 1028.36338411 -503.34179688 1026.79492188 C-508.24210997 1021.8978371 -513.04786235 1016.96067268 -517.55297852 1011.69213867 C-519.59854586 1009.30006389 -521.73946018 1006.99920388 -523.875 1004.6875 C-528.79495345 999.28519817 -533.44545002 993.71222823 -538 988 C-538.41862305 987.47567383 -538.83724609 986.95134766 -539.26855469 986.41113281 C-542.06890029 982.8966887 -544.84072634 979.36119526 -547.59375 975.80957031 C-548.49327369 974.65205824 -549.39656924 973.49746129 -550.3046875 972.34667969 C-567.34977142 950.71750123 -582.60703941 927.0364578 -596 903 C-596.84135498 901.49228027 -596.84135498 901.49228027 -597.69970703 899.95410156 C-629.62476492 842.3993153 -652.55492288 780.31683066 -664.35205078 715.51171875 C-664.91513991 712.45991994 -665.5076999 709.4169894 -666.12109375 706.375 C-668.36488144 695.06221491 -669.86283716 683.70041358 -671.1875 672.25 C-671.27235657 671.52590942 -671.35721313 670.80181885 -671.44464111 670.05578613 C-673.8798348 649.06051595 -674.18807285 628.16631317 -674.18530273 607.05322266 C-674.18522165 603.94509033 -674.19214982 600.83710595 -674.20581055 597.72900391 C-674.28498245 579.39235333 -674.03308575 561.24939985 -672 543 C-671.85998062 541.69872162 -671.85998062 541.69872162 -671.71713257 540.37115479 C-671.06265008 534.36053786 -670.31089856 528.36640052 -669.5 522.375 C-669.37705566 521.46031952 -669.25411133 520.54563904 -669.12744141 519.60324097 C-667.05777337 504.44834345 -664.26476792 489.5033562 -661 474.5625 C-660.79689209 473.62774841 -660.59378418 472.69299683 -660.38452148 471.72991943 C-656.42776101 453.67510487 -651.50715392 435.94664311 -645.4921875 418.46875 C-644.28031748 414.91393127 -643.18793318 411.33061304 -642.10546875 407.734375 C-640.13616609 401.3002039 -637.86953284 395.02229035 -635.4375 388.75 C-635.00477783 387.63230225 -634.57205566 386.51460449 -634.1262207 385.36303711 C-622.59558544 355.90229504 -609.03664216 327.27219083 -593 300 C-592.49082031 299.12762695 -591.98164062 298.25525391 -591.45703125 297.35644531 C-569.55598357 259.90227573 -543.43692763 224.75713132 -513.8203125 193.0390625 C-511.41639503 190.46194751 -509.07771277 187.83383505 -506.75 185.1875 C-502.62258137 180.5847114 -498.29965513 176.19120123 -493.9375 171.8125 C-493.2765332 171.14694092 -492.61556641 170.48138184 -491.93457031 169.7956543 C-488.05773696 165.93083394 -484.0703764 162.25759294 -479.92651367 158.68139648 C-476.93943674 156.07437598 -474.07137791 153.34489351 -471.1875 150.625 C-465.32558997 145.14622134 -459.28192381 139.99485394 -453 135 C-451.88323342 134.09222879 -450.76739779 133.18331148 -449.65234375 132.2734375 C-434.66612567 120.09203935 -419.05099004 108.73524694 -403 98 C-402.35450195 97.56655273 -401.70900391 97.13310547 -401.04394531 96.68652344 C-327.40568604 47.46074992 -242.25350542 15.11487786 -136.99066162 0.23431396 C-135.05638894 0.00663735 -133.12314259 -0.22970637 -131.18994141 -0.46630859 C-88.32631235 -5.52549666 -42.79744978 -5.3916578 0 0 Z " fill="#FEFEFE" transform="translate(978,421)"/>
<path d="M0 0 C0.4542334 0.82282471 0.9084668 1.64564941 1.37646484 2.4934082 C6.69660082 12.02377855 12.5407806 21.13017448 18.625 30.1875 C19.3489949 31.2690889 19.3489949 31.2690889 20.08761597 32.37252808 C31.60689966 49.56954494 43.74493655 66.09732368 57 82 C57.48065918 82.57975586 57.96131836 83.15951172 58.45654297 83.75683594 C64.58269335 91.13697568 70.91961893 98.27903247 77.44848633 105.30493164 C78.62083596 106.58575359 79.77986325 107.87878715 80.93237305 109.17749023 C86.44775998 115.38685398 92.18327046 121.33870385 98.06616211 127.1965332 C99.56806925 128.69304925 101.06451062 130.194883 102.56054688 131.69726562 C107.33468968 136.47470356 112.15826213 141.1416862 117.2902832 145.53540039 C119.68685041 147.58837864 121.99473592 149.7338618 124.3125 151.875 C129.71480183 156.79495345 135.28777177 161.44545002 141 166 C141.52432617 166.41862305 142.04865234 166.83724609 142.58886719 167.26855469 C200.85713416 213.69731555 265.54191568 248.80818972 336 273 C337.23363281 273.43022461 337.23363281 273.43022461 338.4921875 273.86914062 C355.6172891 279.80283811 373.38619894 283.80523575 391 288 C392.25586914 288.29970703 393.51173828 288.59941406 394.80566406 288.90820312 C408.48628269 292.12404179 422.22628406 294.64920813 436.125 296.6875 C437.40125244 296.87795898 438.67750488 297.06841797 439.99243164 297.26464844 C444.65201555 297.93024649 449.3222471 298.47886713 454 299 C455.14436523 299.12808044 456.28873047 299.25616089 457.46777344 299.38812256 C480.08263434 301.83645405 502.48122907 302.41799729 525.21557617 302.26428223 C528.6574911 302.24488602 532.09935463 302.24110197 535.54131699 302.2375679 C539.6890272 302.23242664 543.83669023 302.21795934 547.984375 302.203125 C548.75841423 302.20124428 549.53245346 302.19936356 550.32994843 302.19742584 C552.51397676 302.19053358 554.69785585 302.17690405 556.88183594 302.16113281 C558.73322174 302.15089081 558.73322174 302.15089081 560.62200928 302.14044189 C563.83516534 302.00685309 566.84237949 301.58732882 570 301 C571.48896842 300.87753978 572.98028025 300.78048832 574.47265625 300.7109375 C621.31619277 298.01298425 667.52136987 287.54528096 712 273 C712.70765503 272.76992249 713.41531006 272.53984497 714.14440918 272.30279541 C733.16616806 266.11506676 751.74343598 259.21358709 770 251 C771.19334961 250.46503906 772.38669922 249.93007812 773.61621094 249.37890625 C822.33509942 227.4568423 868.09729735 199.52984941 909.26757812 165.42822266 C911.74310877 163.3873751 914.24998215 161.38572864 916.75 159.375 C921.66701795 155.3526575 926.3338579 151.10160928 930.98046875 146.7734375 C933.188758 144.72237565 935.44827341 142.74287839 937.73144531 140.77563477 C941.74691571 137.26695519 945.55305045 133.59215215 949.31640625 129.81640625 C949.97656235 129.15720688 950.63671844 128.49800751 951.31687927 127.8188324 C952.70035506 126.43603165 954.08259083 125.05198924 955.46362305 123.66674805 C957.55731669 121.56769657 959.65629874 119.4740406 961.75585938 117.38085938 C963.10969571 116.02636214 964.46322175 114.67155469 965.81640625 113.31640625 C966.43326797 112.70156876 967.0501297 112.08673126 967.6856842 111.45326233 C971.98629546 107.12984041 976.02768748 102.62547029 980 98 C980.95009891 96.90588347 981.9005445 95.81206774 982.8515625 94.71875 C999.64004868 75.27992307 1015.03901236 55.1046015 1029.3125 33.75 C1029.93694504 32.81809845 1029.93694504 32.81809845 1030.57400513 31.86737061 C1035.59836492 24.35473398 1040.44378449 16.77686985 1044.94148254 8.93450928 C1046.95582266 5.48365219 1049.0320762 2.68199425 1052 0 C1066.39508684 7.9944143 1080.70380211 16.1117491 1094.91015625 24.4375 C1101.21570419 28.1321331 1107.54294436 31.78852681 1113.875 35.4375 C1114.95515381 36.06003662 1116.03530762 36.68257324 1117.14819336 37.32397461 C1119.33796334 38.58576826 1121.52782355 39.84740534 1123.71777344 41.10888672 C1129.14659942 44.23680148 1134.57319281 47.36858448 1140 50.5 C1142.16665583 51.75001879 1144.3333225 53.00001878 1146.5 54.25 C1159.5 61.75 1172.5 69.25 1185.5 76.75 C1186.57266113 77.36883057 1187.64532227 77.98766113 1188.75048828 78.62524414 C1190.91557071 79.87435518 1193.08060982 81.12354129 1195.24560547 82.37280273 C1200.68615706 85.51202309 1206.12747216 88.64990563 1211.5703125 91.78515625 C1222.02206199 97.80747329 1232.46299548 103.84669337 1242.875 109.9375 C1251.55262241 115.01275123 1260.26605568 120.02258767 1269 125 C1278.72115617 130.5400173 1288.40894658 136.13374809 1298.06689453 141.78344727 C1308.59084625 147.93766742 1319.15380137 154.02369996 1329.71777344 160.10888672 C1335.14659942 163.23680148 1340.57319281 166.36858448 1346 169.5 C1348.16665583 170.75001879 1350.3333225 172.00001878 1352.5 173.25 C1356.83333333 175.75 1361.16666667 178.25 1365.5 180.75 C1367.11165039 181.67945435 1367.11165039 181.67945435 1368.75585938 182.62768555 C1370.9037989 183.86734149 1373.05094641 185.10837086 1375.19726562 186.35083008 C1380.28075313 189.29131665 1385.37132824 192.21686142 1390.49072266 195.09432983 C1392.91373289 196.4573529 1395.33226765 197.82820865 1397.75048828 199.19970703 C1399.4634559 200.16686681 1401.18284351 201.12262774 1402.90234375 202.078125 C1403.93488281 202.66464844 1404.96742187 203.25117187 1406.03125 203.85546875 C1407.40120117 204.62346802 1407.40120117 204.62346802 1408.79882812 205.40698242 C1411.14179623 207.10261983 1411.97919025 208.32977281 1413 211 C1405.33092792 222.63802223 1397.4669046 233.753659 1388 244 C1386.67935547 245.44439453 1386.67935547 245.44439453 1385.33203125 246.91796875 C1372.09775621 260.77779298 1355.98740549 269.72047674 1339.42724609 279.06054688 C1333.93068295 282.17101116 1328.46665087 285.33736185 1323 288.5 C1320.83611391 289.74900359 1318.67205105 290.99770098 1316.5078125 292.24609375 C1315.43563477 292.86468262 1314.36345703 293.48327148 1313.25878906 294.12060547 C1309.98300434 296.00980166 1306.70644107 297.89764109 1303.4296875 299.78515625 C1292.97793801 305.80747329 1282.53700452 311.84669337 1272.125 317.9375 C1262.85500223 323.35921178 1253.54168248 328.70204915 1244.21154785 334.01922607 C1235.0871716 339.22045129 1225.99867226 344.48027878 1216.93310547 349.78344727 C1206.40915375 355.93766742 1195.84619863 362.02369996 1185.28222656 368.10888672 C1179.85340058 371.23680148 1174.42680719 374.36858448 1169 377.5 C1166.83334417 378.75001879 1164.6666775 380.00001878 1162.5 381.25 C1161.4275 381.86875 1160.355 382.4875 1159.25 383.125 C967.50000001 493.74999999 967.50000001 493.74999999 964.24951172 495.62524414 C962.08442929 496.87435518 959.91939018 498.12354129 957.75439453 499.37280273 C952.31384294 502.51202309 946.87252784 505.64990563 941.4296875 508.78515625 C930.97793801 514.80747329 920.53700452 520.84669337 910.125 526.9375 C900.85500223 532.35921178 891.54168248 537.70204915 882.21154785 543.01922607 C873.0871716 548.22045129 863.99867226 553.48027878 854.93310547 558.78344727 C844.40915375 564.93766742 833.84619863 571.02369996 823.28222656 577.10888672 C817.85340058 580.23680148 812.42680719 583.36858448 807 586.5 C804.83334417 587.75001879 802.6666775 589.00001878 800.5 590.25 C798.89125 591.178125 798.89125 591.178125 797.25 592.125 C750.66666667 619 704.08333333 645.875 657.5 672.75 C656.42669434 673.3692334 655.35338867 673.9884668 654.24755859 674.62646484 C652.08909502 675.87169484 649.93056677 677.11681272 647.77197266 678.36181641 C641.09254433 682.21451793 634.41567363 686.07160947 627.74047852 689.93164062 C624.45064588 691.8313191 621.15726211 693.72471341 617.86328125 695.6171875 C614.38548408 697.6164069 610.92212338 699.63456382 607.48046875 701.6953125 C589.29147765 712.47831221 568.93297933 718.44719764 548 721 C547.10925781 721.11214844 546.21851563 721.22429688 545.30078125 721.33984375 C498.08467624 726.25678479 460.39978124 712.33058476 420.41113281 688.98779297 C414.95162531 685.80633648 409.47527059 682.65422297 404 679.5 C401.83324656 678.25015042 399.66658002 677.00015017 397.5 675.75 C396.4275 675.13125 395.355 674.5125 394.25 673.875 C339 642 283.75 610.125 228.5 578.25 C227.42733887 577.63116943 226.35467773 577.01233887 225.24951172 576.37475586 C223.08442929 575.12564482 220.91939018 573.87645871 218.75439453 572.62719727 C213.31384294 569.48797691 207.87252784 566.35009437 202.4296875 563.21484375 C191.97793801 557.19252671 181.53700452 551.15330663 171.125 545.0625 C162.44737759 539.98724877 153.73394432 534.97741233 145 530 C135.27884383 524.4599827 125.59105342 518.86625191 115.93310547 513.21655273 C105.40915375 507.06233258 94.84619863 500.97630004 84.28222656 494.89111328 C78.85340058 491.76319852 73.42680719 488.63141552 68 485.5 C65.83334417 484.24998121 63.6666775 482.99998122 61.5 481.75 C-3.5 444.25 -68.5 406.75 -133.5 369.25 C-134.57266113 368.63116943 -135.64532227 368.01233887 -136.75048828 367.37475586 C-138.91557071 366.12564482 -141.08060982 364.87645871 -143.24560547 363.62719727 C-148.68615706 360.48797691 -154.12747216 357.35009437 -159.5703125 354.21484375 C-170.02206199 348.19252671 -180.46299548 342.15330663 -190.875 336.0625 C-199.55262241 330.98724877 -208.26605568 325.97741233 -217 321 C-226.72115617 315.4599827 -236.40894658 309.86625191 -246.06689453 304.21655273 C-253.32211964 299.97382588 -260.59373971 295.76038056 -267.875 291.5625 C-268.94524414 290.94487793 -270.01548828 290.32725586 -271.11816406 289.69091797 C-276.15425623 286.7862933 -281.19324533 283.88699262 -286.24191284 281.00428772 C-287.99163997 280.00477557 -289.74035254 279.00351089 -291.48876953 278.00170898 C-293.6648294 276.75553425 -295.8427401 275.51258285 -298.02294922 274.27368164 C-323.35918822 259.7448237 -342.35548045 241.74756869 -358.75 217.8125 C-359.1929541 217.17658936 -359.6359082 216.54067871 -360.09228516 215.88549805 C-361.14487981 214.30959276 -362.08340513 212.65870034 -363 211 C-361.73172274 207.19516823 -360.56878831 206.89015182 -357.12890625 204.953125 C-355.57526367 204.06850586 -355.57526367 204.06850586 -353.99023438 203.16601562 C-352.85908203 202.53373047 -351.72792969 201.90144531 -350.5625 201.25 C-349.38161359 200.58104434 -348.20128302 199.9111066 -347.02148438 199.24023438 C-344.56741044 197.84578107 -342.11098596 196.45560687 -339.65283203 195.06835938 C-334.07920501 191.91832838 -328.54142826 188.70621187 -323 185.5 C-320.83350437 184.24970358 -318.66683705 182.99970462 -316.5 181.75 C-315.4275 181.13125 -314.355 180.5125 -313.25 179.875 C-251.5 144.25 -251.5 144.25 -248.24951172 142.37475586 C-246.08442929 141.12564482 -243.91939018 139.87645871 -241.75439453 138.62719727 C-236.31384294 135.48797691 -230.87252784 132.35009437 -225.4296875 129.21484375 C-214.97793801 123.19252671 -204.53700452 117.15330663 -194.125 111.0625 C-184.85500223 105.64078822 -175.54168248 100.29795085 -166.21154785 94.98077393 C-157.0871716 89.77954871 -147.99867226 84.51972122 -138.93310547 79.21655273 C-128.40915375 73.06233258 -117.84619863 66.97630004 -107.28222656 60.89111328 C-101.85340058 57.76319852 -96.42680719 54.63141552 -91 51.5 C-88.83334417 50.24998121 -86.6666775 48.99998122 -84.5 47.75 C-83.4275 47.13125 -82.355 46.5125 -81.25 45.875 C-71.5 40.25 -71.5 40.25 -68.24951172 38.37475586 C-66.08442929 37.12564482 -63.91939018 35.87645871 -61.75439453 34.62719727 C-56.31384294 31.48797691 -50.87252784 28.35009437 -45.4296875 25.21484375 C-43.24478807 23.95573541 -41.05989221 22.69662086 -38.875 21.4375 C-37.28461914 20.52182251 -37.28461914 20.52182251 -35.66210938 19.58764648 C-30.12784828 16.39717366 -24.60590431 13.18712418 -19.1015625 9.9453125 C-17.99312988 9.29377197 -16.88469727 8.64223145 -15.74267578 7.97094727 C-13.62162506 6.7226222 -11.50271524 5.47065051 -9.38623047 4.21459961 C-7.97301514 3.38327515 -7.97301514 3.38327515 -6.53125 2.53515625 C-5.70173828 2.044104 -4.87222656 1.55305176 -4.01757812 1.04711914 C-2 0 -2 0 0 0 Z " fill="#004482" transform="translate(386,1329)"/>
<path d="M0 0 C1.09860352 -0.00358521 2.19720703 -0.00717041 3.32910156 -0.01086426 C20.90378522 -0.04167633 37.85827139 0.85820059 55.0625 4.6875 C56.08504883 4.91026611 57.10759766 5.13303223 58.16113281 5.36254883 C60.19244864 5.80719831 62.2229294 6.25568469 64.25244141 6.70849609 C66.60541925 7.22575815 68.96066277 7.71005316 71.32421875 8.17578125 C92.31937356 12.47259645 112.81049803 20.90177917 132 30.3125 C132.84578613 30.72580566 133.69157227 31.13911133 134.56298828 31.56494141 C152.47996947 40.41525777 169.29218069 50.95030384 185 63.3125 C185.83273437 63.95316406 186.66546875 64.59382812 187.5234375 65.25390625 C193.29524943 69.76028938 198.70644024 74.61240062 204.0625 79.59765625 C206.6711205 82.00854886 209.32496834 84.35113421 212 86.6875 C222.01053961 95.70499408 230.59466997 105.95223288 238.73583984 116.65429688 C239.9137633 118.19938304 241.10670362 119.73298886 242.30078125 121.265625 C249.8867461 131.12872673 256.6704735 141.60260582 263 152.3125 C262.40574219 152.59947754 261.81148437 152.88645508 261.19921875 153.18212891 C254.62299035 156.40760018 248.30309958 159.96073025 242 163.6875 C239.87273476 164.93677522 237.74511842 166.18545275 235.6171875 167.43359375 C234.52631836 168.07409668 233.43544922 168.71459961 232.31152344 169.37451172 C226.92999121 172.52392213 221.52804976 175.63769307 216.125 178.75 C215.04605469 179.37181152 213.96710937 179.99362305 212.85546875 180.63427734 C210.66449064 181.89682523 208.47340981 183.15919488 206.28222656 184.42138672 C200.85340058 187.54930148 195.42680719 190.68108448 190 193.8125 C187.83334417 195.06251879 185.6666775 196.31251878 183.5 197.5625 C182.4275 198.18125 181.355 198.8 180.25 199.4375 C14.50000001 295.0625 14.50000001 295.0625 11.24951172 296.93774414 C9.08442929 298.18685518 6.91939018 299.43604129 4.75439453 300.68530273 C-0.68615706 303.82452309 -6.12747216 306.96240563 -11.5703125 310.09765625 C-22.02206199 316.11997329 -32.46299548 322.15919337 -42.875 328.25 C-52.14499777 333.67171178 -61.45831752 339.01454915 -70.78845215 344.33172607 C-79.9128284 349.53295129 -89.00132774 354.79277878 -98.06689453 360.09594727 C-108.59084625 366.25016742 -119.15380137 372.33619996 -129.71777344 378.42138672 C-135.14659942 381.54930148 -140.57319281 384.68108448 -146 387.8125 C-148.16665583 389.06251879 -150.3333225 390.31251878 -152.5 391.5625 C-153.5725 392.18125 -154.645 392.8 -155.75 393.4375 C-191.5 414.0625 -191.5 414.0625 -194.75048828 415.93774414 C-196.91557071 417.18685518 -199.08060982 418.43604129 -201.24560547 419.68530273 C-206.68615706 422.82452309 -212.12747216 425.96240563 -217.5703125 429.09765625 C-219.75521193 430.35676459 -221.94010779 431.61587914 -224.125 432.875 C-225.18525391 433.48545166 -226.24550781 434.09590332 -227.33789062 434.72485352 C-232.87215172 437.91532634 -238.39409569 441.12537582 -243.8984375 444.3671875 C-245.00687012 445.01872803 -246.11530273 445.67026855 -247.25732422 446.34155273 C-249.37837494 447.5898778 -251.49728476 448.84184949 -253.61376953 450.09790039 C-254.55591309 450.6521167 -255.49805664 451.20633301 -256.46875 451.77734375 C-257.29826172 452.268396 -258.12777344 452.75944824 -258.98242188 453.26538086 C-261 454.3125 -261 454.3125 -263 454.3125 C-263.33 454.9725 -263.66 455.6325 -264 456.3125 C-272.81475971 440.00359322 -280.78513419 423.81760568 -287 406.3125 C-287.52932129 404.84949463 -287.52932129 404.84949463 -288.06933594 403.35693359 C-299.65880032 371.12144148 -305.23740703 336.93783906 -305.1875 302.6875 C-305.18722809 301.98151672 -305.18695618 301.27553345 -305.18667603 300.54815674 C-305.1688288 290.4472008 -304.81694026 280.52750242 -303.32080078 270.52636719 C-302.956695 268.01364936 -302.64673296 265.4968957 -302.33984375 262.9765625 C-298.76878836 234.20334554 -290.77066773 206.82217584 -279 180.3125 C-278.61086426 179.43255371 -278.22172852 178.55260742 -277.82080078 177.64599609 C-264.74377396 148.40081404 -246.69357128 121.50950912 -224.7109375 98.2109375 C-222.52618511 95.87507832 -220.43370502 93.50781629 -218.375 91.0625 C-215.07867742 87.25660098 -211.41370863 83.95878459 -207.6328125 80.640625 C-205.93444904 79.13880805 -204.2601851 77.60906944 -202.6171875 76.046875 C-175.40048753 50.28059477 -141.58161609 32.03516957 -107 18.3125 C-106.28908203 18.02793945 -105.57816406 17.74337891 -104.84570312 17.45019531 C-88.00906337 10.79280467 -69.82025139 6.41272605 -52 3.3125 C-51.16404297 3.16151855 -50.32808594 3.01053711 -49.46679688 2.85498047 C-33.05870384 0.04034275 -16.59809859 0.02195202 0 0 Z " fill="#659AD2" transform="translate(912,721.6875)"/>
<path d="M0 0 C2.22583008 1.00390625 2.22583008 1.00390625 4.95703125 2.5625 C5.94783691 3.12195312 6.93864258 3.68140625 7.95947266 4.2578125 C8.96284668 4.83273437 9.9662207 5.40765625 11 6 C12.75337416 6.98011916 14.50726478 7.95931508 16.26171875 8.9375 C18.07108673 9.95696043 19.87965198 10.97784659 21.6875 12 C23.16899536 12.83748779 23.16899536 12.83748779 24.68041992 13.69189453 C32.76162596 18.27309445 40.79257062 22.93713304 48.80981445 27.62915039 C59.41811048 33.837196 70.06716947 39.97379721 80.71777344 46.10888672 C86.14659942 49.23680148 91.57319281 52.36858448 97 55.5 C99.16665583 56.75001879 101.3333225 58.00001878 103.5 59.25 C133.83333333 76.75 164.16666667 94.25 194.5 111.75 C195.57282227 112.36891113 196.64564453 112.98782227 197.75097656 113.62548828 C199.91447476 114.87371034 202.07788643 116.12208239 204.24121094 117.37060547 C209.70565017 120.52405256 215.17163645 123.67476096 220.640625 126.8203125 C234.4833929 134.78647208 248.27150141 142.8384055 262 151 C261.19733406 155.78380727 259.27773029 159.26924986 256.6875 163.3125 C256.02415649 164.35821167 256.02415649 164.35821167 255.34741211 165.42504883 C239.93556228 189.34924197 220.08845127 213.04609709 197.78515625 230.76953125 C194.96147994 233.03084847 192.23757632 235.38555648 189.5 237.75 C177.02945218 248.15021044 163.15002503 257.05914072 149 265 C148.24589844 265.42490723 147.49179688 265.84981445 146.71484375 266.28759766 C117.04103005 282.83324939 84.42697022 294.08892945 51 300 C49.76378906 300.22171875 48.52757812 300.4434375 47.25390625 300.671875 C32.4379699 303.11345253 17.63147557 304.41687741 2.625 304.375 C1.84196503 304.37412384 1.05893005 304.37324768 0.25216675 304.37234497 C-81.74493784 304.07499679 -155.92013607 271.04249189 -215 215 C-215.825 214.21753906 -216.65 213.43507813 -217.5 212.62890625 C-222.27083491 207.98231183 -226.53793113 203.06360431 -230.6953125 197.86328125 C-233.01325149 194.98353671 -235.40808556 192.18271079 -237.8125 189.375 C-262 160.36507009 -262 160.36507009 -262 151 C-261.2879541 150.59386475 -260.5759082 150.18772949 -259.84228516 149.76928711 C-243.60954545 140.50808466 -227.39940195 131.2092014 -211.21777344 121.85888672 C-205.81329355 118.73675395 -200.40652588 115.61858796 -195 112.5 C-192.8333225 111.25001878 -190.66665583 110.00001879 -188.5 108.75 C-149.5 86.25 -149.5 86.25 -146.24951172 84.37475586 C-144.08442929 83.12564482 -141.91939018 81.87645871 -139.75439453 80.62719727 C-134.31384294 77.48797691 -128.87252784 74.35009437 -123.4296875 71.21484375 C-112.97793801 65.19252671 -102.53700452 59.15330663 -92.125 53.0625 C-82.85500223 47.64078822 -73.54168248 42.29795085 -64.21154785 36.98077393 C-55.10485428 31.78962848 -46.03372112 26.5404091 -36.98583984 21.24731445 C-29.2134435 16.70199619 -21.42352042 12.18778975 -13.625 7.6875 C-12.49433105 7.03450928 -11.36366211 6.38151855 -10.19873047 5.70874023 C-9.15604004 5.10747314 -8.11334961 4.50620605 -7.0390625 3.88671875 C-5.65001709 3.08560669 -5.65001709 3.08560669 -4.23291016 2.26831055 C-2.8409887 1.4776882 -1.43179021 0.71589511 0 0 Z " fill="#004482" transform="translate(911,1025)"/>
<path d="M0 0 C22.44 0 44.88 0 68 0 C68 22.44 68 44.88 68 68 C90.11 68 112.22 68 135 68 C135 90.11 135 112.22 135 135 C112.89 135 90.78 135 68 135 C68 157.44 68 179.88 68 203 C45.56 203 23.12 203 0 203 C0 180.56 0 158.12 0 135 C-22.11 135 -44.22 135 -67 135 C-67 112.56 -67 90.12 -67 67 C-44.89 67 -22.78 67 0 67 C0 44.89 0 22.78 0 0 Z " fill="#FDFDFE" transform="translate(1383,924)"/>
<path d="M0 0 C22.44 0 44.88 0 68 0 C68 22.44 68 44.88 68 68 C90.11 68 112.22 68 135 68 C135 90.11 135 112.22 135 135 C112.89 135 90.78 135 68 135 C68 157.11 68 179.22 68 202 C45.89 202 23.78 202 1 202 C1 179.89 1 157.78 1 135 C-21.44 135 -43.88 135 -67 135 C-67 112.56 -67 90.12 -67 67 C-44.89 67 -22.78 67 0 67 C0 44.89 0 22.78 0 0 Z " fill="#FEFEFE" transform="translate(1636,924)"/>
</svg>
